<?xml version="1.0" encoding="utf-8"?>
<!-- Generator: Adobe Illustrator 24.0.3, SVG Export Plug-In . SVG Version: 6.00 Build 0)  -->
<svg version="1.1" id="Calque_1" xmlns="http://www.w3.org/2000/svg" xmlns:xlink="http://www.w3.org/1999/xlink" x="0px" y="0px"
	 viewBox="0 0 28 68" style="enable-background:new 0 0 28 68;" xml:space="preserve">
<style type="text/css">
	.st0{fill:#FFFFFF;}
	
		.st1{fill-rule:evenodd;clip-rule:evenodd;fill:none;stroke:#FFFFFF;stroke-linecap:round;stroke-linejoin:round;stroke-miterlimit:10;}
</style>
<g>
	<path class="st0" d="M15.5,2c6.07,0,11,4.93,11,11v16c0,6.07-4.93,11-11,11h-3c-6.07,0-11-4.93-11-11V13c0-6.07,4.93-11,11-11H15.5
		 M15.5,1h-3c-6.63,0-12,5.37-12,12v16c0,6.63,5.37,12,12,12h3c6.63,0,12-5.37,12-12V13C27.5,6.37,22.13,1,15.5,1L15.5,1z"/>
</g>
<line class="st1" x1="14" y1="8" x2="14" y2="14"/>
<line class="st1" x1="14" y1="47" x2="14" y2="65.45"/>
<g>
	<line class="st1" x1="10.22" y1="62.09" x2="14" y2="65.87"/>
	<line class="st1" x1="17.78" y1="62.09" x2="14" y2="65.87"/>
</g>
</svg>
